<svg width="213" height="52" viewBox="0 0 213 52" fill="none" xmlns="http://www.w3.org/2000/svg">
<g clip-path="url(#clip0_319_8)">
<path d="M55.1072 39.5694V26.0657H61.4097C63.0238 26.0657 64.2536 26.3872 65.099 27.0303C65.9445 27.6604 66.3672 28.5092 66.3672 29.5767C66.3672 30.2969 66.2007 30.9142 65.8676 31.4286C65.5346 31.9302 65.0862 32.3224 64.5226 32.6054C63.9718 32.8754 63.3697 33.0105 62.7164 33.0105L63.0622 32.316C63.818 32.316 64.497 32.4575 65.099 32.7404C65.7011 33.0105 66.1751 33.4092 66.521 33.9364C66.8796 34.4637 67.059 35.1196 67.059 35.9041C67.059 37.0616 66.617 37.9618 65.7331 38.6049C64.8492 39.2479 63.5362 39.5694 61.794 39.5694H55.1072ZM57.6051 37.6017H61.6403C62.5755 37.6017 63.2928 37.4474 63.7924 37.1388C64.292 36.8301 64.5418 36.335 64.5418 35.6533C64.5418 34.9846 64.292 34.4959 63.7924 34.1872C63.2928 33.8657 62.5755 33.705 61.6403 33.705H57.413V31.7566H61.1407C62.0118 31.7566 62.6779 31.6022 63.1391 31.2936C63.6131 30.9849 63.8501 30.5219 63.8501 29.9046C63.8501 29.2744 63.6131 28.805 63.1391 28.4964C62.6779 28.1877 62.0118 28.0334 61.1407 28.0334H57.6051V37.6017ZM69.6863 39.5694V29.268H71.9729V32.1038L71.7039 31.2743C72.0114 30.5798 72.4917 30.0525 73.145 29.6924C73.8112 29.3323 74.6374 29.1523 75.6238 29.1523V31.4479C75.5213 31.4222 75.4252 31.4093 75.3356 31.4093C75.2459 31.3965 75.1562 31.39 75.0666 31.39C74.157 31.39 73.4333 31.6601 72.8952 32.2003C72.3572 32.7275 72.0882 33.5185 72.0882 34.573V39.5694H69.6863ZM83.4435 39.5694V37.486L83.309 37.0423V33.3963C83.309 32.689 83.0976 32.1424 82.6749 31.7566C82.2522 31.3579 81.6117 31.1585 80.7534 31.1585C80.1769 31.1585 79.6069 31.2486 79.0432 31.4286C78.4924 31.6087 78.0248 31.8594 77.6405 32.181L76.699 30.4255C77.2498 30.0011 77.9031 29.686 78.6589 29.4802C79.4275 29.2616 80.2218 29.1523 81.0416 29.1523C82.5276 29.1523 83.6741 29.5124 84.4811 30.2326C85.301 30.9399 85.7109 32.0395 85.7109 33.5313V39.5694H83.4435ZM80.2154 39.7045C79.4467 39.7045 78.7742 39.5759 78.1978 39.3186C77.6213 39.0486 77.173 38.682 76.8527 38.2191C76.5453 37.7432 76.3915 37.2095 76.3915 36.6179C76.3915 36.0392 76.526 35.5183 76.7951 35.0553C77.0769 34.5923 77.5316 34.2258 78.1593 33.9557C78.787 33.6857 79.6197 33.5506 80.6573 33.5506H83.6356V35.1518H80.8302C80.0104 35.1518 79.4596 35.2868 79.1777 35.5569C78.8959 35.8141 78.755 36.1356 78.755 36.5214C78.755 36.9587 78.9279 37.3059 79.2738 37.5632C79.6197 37.8204 80.1001 37.949 80.7149 37.949C81.3042 37.949 81.8294 37.8139 82.2906 37.5439C82.7646 37.2738 83.104 36.8751 83.309 36.3478L83.7125 37.7946C83.4819 38.3991 83.0656 38.8685 82.4635 39.2029C81.8743 39.5373 81.1249 39.7045 80.2154 39.7045ZM88.9856 39.5694V29.268H91.3874V39.5694H88.9856ZM90.1961 27.5704C89.7478 27.5704 89.3763 27.4289 89.0816 27.146C88.7998 26.8631 88.6589 26.5223 88.6589 26.1236C88.6589 25.712 88.7998 25.3712 89.0816 25.1012C89.3763 24.8182 89.7478 24.6768 90.1961 24.6768C90.6445 24.6768 91.0095 24.8118 91.2914 25.0819C91.586 25.3391 91.7333 25.667 91.7333 26.0657C91.7333 26.4901 91.5924 26.8502 91.3106 27.146C91.0288 27.4289 90.6573 27.5704 90.1961 27.5704ZM100.554 29.1523C101.374 29.1523 102.104 29.313 102.745 29.6345C103.398 29.9561 103.911 30.4512 104.282 31.12C104.654 31.7759 104.839 32.6247 104.839 33.6664V39.5694H102.437V33.975C102.437 33.0619 102.22 32.3803 101.784 31.9302C101.361 31.4801 100.766 31.255 99.9971 31.255C99.4335 31.255 98.9339 31.3707 98.4983 31.6022C98.0628 31.8337 97.7233 32.181 97.4799 32.6439C97.2493 33.0941 97.134 33.6664 97.134 34.3608V39.5694H94.7322V29.268H97.0188V32.0459L96.6152 31.1971C96.9739 30.5412 97.4927 30.0397 98.1717 29.6924C98.8634 29.3323 99.6576 29.1523 100.554 29.1523ZM119.595 39.7623C117.751 39.7623 116.303 39.2415 115.253 38.1998C114.215 37.158 113.696 35.6533 113.696 33.6857V26.0657H116.194V33.5892C116.194 34.9782 116.489 35.9877 117.078 36.6179C117.68 37.2481 118.526 37.5632 119.614 37.5632C120.703 37.5632 121.542 37.2481 122.132 36.6179C122.721 35.9877 123.016 34.9782 123.016 33.5892V26.0657H125.475V33.6857C125.475 35.6533 124.95 37.158 123.899 38.1998C122.862 39.2415 121.427 39.7623 119.595 39.7623ZM134.757 29.1523C135.577 29.1523 136.307 29.313 136.948 29.6345C137.601 29.9561 138.113 30.4512 138.485 31.12C138.856 31.7759 139.042 32.6247 139.042 33.6664V39.5694H136.64V33.975C136.64 33.0619 136.423 32.3803 135.987 31.9302C135.564 31.4801 134.969 31.255 134.2 31.255C133.636 31.255 133.137 31.3707 132.701 31.6022C132.266 31.8337 131.926 32.181 131.683 32.6439C131.452 33.0941 131.337 33.6664 131.337 34.3608V39.5694H128.935V29.268H131.222V32.0459L130.818 31.1971C131.177 30.5412 131.696 30.0397 132.375 29.6924C133.066 29.3323 133.861 29.1523 134.757 29.1523ZM142.281 39.5694V29.268H144.683V39.5694H142.281ZM143.492 27.5704C143.044 27.5704 142.672 27.4289 142.378 27.146C142.096 26.8631 141.955 26.5223 141.955 26.1236C141.955 25.712 142.096 25.3712 142.378 25.1012C142.672 24.8182 143.044 24.6768 143.492 24.6768C143.94 24.6768 144.305 24.8118 144.587 25.0819C144.882 25.3391 145.029 25.667 145.029 26.0657C145.029 26.4901 144.888 26.8502 144.606 27.146C144.325 27.4289 143.953 27.5704 143.492 27.5704ZM150.757 39.5694L146.356 29.268H148.854L152.64 38.3541H151.41L155.33 29.268H157.636L153.235 39.5694H150.757ZM163.87 39.7045C162.73 39.7045 161.731 39.4794 160.873 39.0293C160.027 38.5663 159.368 37.9361 158.894 37.1388C158.432 36.3414 158.202 35.4347 158.202 34.4187C158.202 33.3899 158.426 32.4832 158.874 31.6987C159.336 30.9013 159.963 30.2776 160.757 29.8275C161.564 29.3773 162.48 29.1523 163.505 29.1523C164.504 29.1523 165.395 29.3709 166.176 29.8082C166.957 30.2454 167.572 30.8627 168.021 31.6601C168.469 32.4575 168.693 33.3963 168.693 34.4766C168.693 34.5795 168.687 34.6952 168.674 34.8238C168.674 34.9524 168.668 35.0746 168.655 35.1904H160.104V33.5892H167.387L166.445 34.0908C166.458 33.4992 166.336 32.9783 166.08 32.5282C165.824 32.0781 165.472 31.7244 165.023 31.4672C164.588 31.21 164.082 31.0814 163.505 31.0814C162.916 31.0814 162.397 31.21 161.949 31.4672C161.513 31.7244 161.167 32.0845 160.911 32.5475C160.668 32.9976 160.546 33.5313 160.546 34.1486V34.5345C160.546 35.1518 160.687 35.6984 160.969 36.1742C161.251 36.65 161.648 37.0166 162.16 37.2738C162.673 37.531 163.262 37.6596 163.928 37.6596C164.504 37.6596 165.023 37.5696 165.484 37.3895C165.946 37.2095 166.355 36.9266 166.714 36.5407L168.002 38.0261C167.54 38.5663 166.957 38.9843 166.253 39.2801C165.561 39.563 164.767 39.7045 163.87 39.7045ZM171.193 39.5694V29.268H173.479V32.1038L173.21 31.2743C173.518 30.5798 173.998 30.0525 174.651 29.6924C175.317 29.3323 176.144 29.1523 177.13 29.1523V31.4479C177.027 31.4222 176.931 31.4093 176.842 31.4093C176.752 31.3965 176.662 31.39 176.573 31.39C175.663 31.39 174.939 31.6601 174.401 32.2003C173.863 32.7275 173.594 33.5185 173.594 34.573V39.5694H171.193ZM182.624 39.7045C181.766 39.7045 180.94 39.5951 180.145 39.3765C179.364 39.145 178.743 38.8685 178.282 38.547L179.204 36.7144C179.665 37.0101 180.216 37.2545 180.856 37.4474C181.497 37.6403 182.137 37.7368 182.778 37.7368C183.534 37.7368 184.078 37.6339 184.411 37.4281C184.757 37.2223 184.93 36.9458 184.93 36.5986C184.93 36.3157 184.815 36.1035 184.584 35.962C184.354 35.8077 184.053 35.6919 183.681 35.6148C183.31 35.5376 182.893 35.4669 182.432 35.4026C181.984 35.3383 181.529 35.2547 181.068 35.1518C180.619 35.036 180.21 34.8753 179.838 34.6695C179.467 34.4509 179.166 34.1615 178.935 33.8014C178.704 33.4413 178.589 32.9655 178.589 32.3739C178.589 31.718 178.775 31.1521 179.146 30.6763C179.518 30.1876 180.037 29.8146 180.703 29.5574C181.382 29.2873 182.182 29.1523 183.105 29.1523C183.796 29.1523 184.495 29.2294 185.199 29.3838C185.904 29.5381 186.486 29.7567 186.948 30.0397L186.025 31.8723C185.539 31.5765 185.045 31.3772 184.546 31.2743C184.059 31.1585 183.572 31.1007 183.085 31.1007C182.355 31.1007 181.811 31.21 181.452 31.4286C181.106 31.6472 180.933 31.9238 180.933 32.2581C180.933 32.5668 181.049 32.7983 181.279 32.9526C181.51 33.1069 181.811 33.2291 182.182 33.3191C182.554 33.4092 182.964 33.4863 183.412 33.5506C183.873 33.6021 184.328 33.6857 184.776 33.8014C185.225 33.9172 185.635 34.0779 186.006 34.2837C186.39 34.4766 186.698 34.7531 186.928 35.1132C187.159 35.4733 187.274 35.9427 187.274 36.5214C187.274 37.1645 187.082 37.7239 186.698 38.1998C186.326 38.6756 185.795 39.0486 185.103 39.3186C184.411 39.5759 183.585 39.7045 182.624 39.7045ZM189.535 39.5694V29.268H191.937V39.5694H189.535ZM190.745 27.5704C190.297 27.5704 189.926 27.4289 189.631 27.146C189.349 26.8631 189.208 26.5223 189.208 26.1236C189.208 25.712 189.349 25.3712 189.631 25.1012C189.926 24.8182 190.297 24.6768 190.745 24.6768C191.194 24.6768 191.559 24.8118 191.841 25.0819C192.135 25.3391 192.283 25.667 192.283 26.0657C192.283 26.4901 192.142 26.8502 191.86 27.146C191.578 27.4289 191.207 27.5704 190.745 27.5704ZM199.144 39.7045C198.016 39.7045 197.145 39.4151 196.53 38.8364C195.916 38.2448 195.608 37.3767 195.608 36.2321V26.9917H198.01V36.1742C198.01 36.6629 198.132 37.0423 198.375 37.3124C198.631 37.5824 198.984 37.7175 199.432 37.7175C199.97 37.7175 200.418 37.576 200.777 37.2931L201.449 39.01C201.168 39.2415 200.822 39.4151 200.412 39.5308C200.002 39.6466 199.579 39.7045 199.144 39.7045ZM193.917 31.2743V29.3452H200.758V31.2743H193.917ZM204.275 43.4469C203.775 43.4469 203.276 43.3633 202.776 43.1961C202.277 43.0289 201.86 42.7975 201.527 42.5017L202.488 40.7269C202.731 40.9455 203.007 41.1191 203.314 41.2477C203.622 41.3763 203.936 41.4407 204.256 41.4407C204.691 41.4407 205.044 41.3313 205.313 41.1127C205.582 40.8941 205.831 40.5275 206.062 40.0131L206.658 38.6627L206.85 38.3734L210.731 29.268H213.037L208.233 40.3989C207.913 41.1706 207.554 41.7815 207.157 42.2316C206.773 42.6817 206.337 42.9968 205.851 43.1768C205.377 43.3569 204.851 43.4469 204.275 43.4469ZM206.389 39.936L201.758 29.268H204.256L208.022 38.1612L206.389 39.936Z" fill="black"/>
<path d="M59.0879 19.437C58.4589 19.437 57.8829 19.2913 57.3602 18.9998C56.8474 18.7082 56.4358 18.271 56.1262 17.688C55.826 17.0952 55.6761 16.347 55.6761 15.4433C55.6761 14.5299 55.8213 13.7818 56.1117 13.1987C56.4119 12.6157 56.8184 12.1833 57.3312 11.9015C57.844 11.61 58.4299 11.4643 59.0879 11.4643C59.8526 11.4643 60.5252 11.6294 61.1059 11.9598C61.6964 12.2902 62.161 12.7517 62.4996 13.3445C62.8481 13.9372 63.0223 14.6369 63.0223 15.4433C63.0223 16.2498 62.8481 16.9544 62.4996 17.5568C62.161 18.1495 61.6964 18.6111 61.1059 18.9415C60.5252 19.2718 59.8526 19.437 59.0879 19.437ZM54.7905 22.1626V11.5517H56.5182V13.3882L56.4601 15.4579L56.6053 17.5276V22.1626H54.7905ZM58.8846 17.8774C59.3202 17.8774 59.7075 17.7803 60.0461 17.5859C60.3945 17.3916 60.6704 17.1098 60.8736 16.7406C61.0769 16.3713 61.1785 15.9389 61.1785 15.4433C61.1785 14.9381 61.0769 14.5057 60.8736 14.1461C60.6704 13.7769 60.3945 13.4951 60.0461 13.3008C59.7075 13.1064 59.3202 13.0093 58.8846 13.0093C58.4491 13.0093 58.0571 13.1064 57.7087 13.3008C57.3602 13.4951 57.0844 13.7769 56.8811 14.1461C56.6779 14.5057 56.5762 14.9381 56.5762 15.4433C56.5762 15.9389 56.6779 16.3713 56.8811 16.7406C57.0844 17.1098 57.3602 17.3916 57.7087 17.5859C58.0571 17.7803 58.4491 17.8774 58.8846 17.8774ZM64.8887 19.335V11.5517H66.6164V13.6943L66.4131 13.0676C66.6454 12.5428 67.0083 12.1445 67.502 11.8724C68.005 11.6003 68.6293 11.4643 69.3748 11.4643V13.1987C69.2971 13.1793 69.2245 13.1696 69.157 13.1696C69.0891 13.1599 69.0212 13.155 68.9538 13.155C68.2663 13.155 67.7197 13.3591 67.3132 13.7672C66.9067 14.1656 66.7035 14.7631 66.7035 15.56V19.335H64.8887ZM74.4728 19.437C73.679 19.437 72.9727 19.267 72.3531 18.9269C71.7336 18.5771 71.2451 18.1009 70.8868 17.4985C70.5286 16.896 70.3496 16.211 70.3496 15.4433C70.3496 14.666 70.5286 13.981 70.8868 13.3882C71.2451 12.7858 71.7336 12.3145 72.3531 11.9744C72.9727 11.6343 73.679 11.4643 74.4728 11.4643C75.276 11.4643 75.9874 11.6343 76.6069 11.9744C77.2359 12.3145 77.7248 12.7809 78.0733 13.3736C78.4315 13.9664 78.6104 14.6563 78.6104 15.4433C78.6104 16.211 78.4315 16.896 78.0733 17.4985C77.7248 18.1009 77.2359 18.5771 76.6069 18.9269C75.9874 19.267 75.276 19.437 74.4728 19.437ZM74.4728 17.8774C74.9181 17.8774 75.3148 17.7803 75.6633 17.5859C76.0117 17.3916 76.2828 17.1098 76.4763 16.7406C76.6795 16.3713 76.7812 15.9389 76.7812 15.4433C76.7812 14.9381 76.6795 14.5057 76.4763 14.1461C76.2828 13.7769 76.0117 13.4951 75.6633 13.3008C75.3148 13.1064 74.9228 13.0093 74.4873 13.0093C74.0419 13.0093 73.6453 13.1064 73.2968 13.3008C72.9582 13.4951 72.6871 13.7769 72.4838 14.1461C72.2806 14.5057 72.1789 14.9381 72.1789 15.4433C72.1789 15.9389 72.2806 16.3713 72.4838 16.7406C72.6871 17.1098 72.9582 17.3916 73.2968 17.5859C73.6453 17.7803 74.0372 17.8774 74.4728 17.8774ZM83.772 19.437C83.0269 19.437 82.354 19.2718 81.754 18.9415C81.1635 18.6014 80.6989 18.135 80.3603 17.5422C80.0217 16.9495 79.8522 16.2498 79.8522 15.4433C79.8522 14.6369 80.0217 13.9372 80.3603 13.3445C80.6989 12.7517 81.1635 12.2902 81.754 11.9598C82.354 11.6294 83.0269 11.4643 83.772 11.4643C84.4207 11.4643 85.0014 11.61 85.5142 11.9015C86.027 12.1833 86.4335 12.6157 86.7337 13.1987C87.0339 13.7818 87.1838 14.5299 87.1838 15.4433C87.1838 16.347 87.0386 17.0952 86.7483 17.688C86.4579 18.271 86.0561 18.7082 85.5432 18.9998C85.0304 19.2913 84.4399 19.437 83.772 19.437ZM83.9898 17.8774C84.4254 17.8774 84.8126 17.7803 85.1513 17.5859C85.4997 17.3916 85.7755 17.1098 85.9788 16.7406C86.1919 16.3713 86.2982 15.9389 86.2982 15.4433C86.2982 14.9381 86.1919 14.5057 85.9788 14.1461C85.7755 13.7769 85.4997 13.4951 85.1513 13.3008C84.8126 13.1064 84.4254 13.0093 83.9898 13.0093C83.5543 13.0093 83.1623 13.1064 82.8139 13.3008C82.4752 13.4951 82.1994 13.7769 81.9863 14.1461C81.7831 14.5057 81.6814 14.9381 81.6814 15.4433C81.6814 15.9389 81.7831 16.3713 81.9863 16.7406C82.1994 17.1098 82.4752 17.3916 82.8139 17.5859C83.1623 17.7803 83.5543 17.8774 83.9898 17.8774ZM86.3417 19.335V17.4985L86.4143 15.4288L86.2692 13.3591V8.52002H88.0694V19.335H86.3417ZM91.1839 19.437C90.8547 19.437 90.5742 19.3253 90.3419 19.1018C90.1096 18.8686 89.9935 18.5771 89.9935 18.2273C89.9935 17.858 90.1096 17.5665 90.3419 17.3527C90.5742 17.1293 90.8547 17.0175 91.1839 17.0175C91.5127 17.0175 91.7937 17.1293 92.026 17.3527C92.2583 17.5665 92.3744 17.858 92.3744 18.2273C92.3744 18.5771 92.2583 18.8686 92.026 19.1018C91.7937 19.3253 91.5127 19.437 91.1839 19.437ZM102.748 19.437C102.09 19.437 101.504 19.2913 100.991 18.9998C100.478 18.7082 100.072 18.271 99.7714 17.688C99.481 17.0952 99.3359 16.347 99.3359 15.4433C99.3359 14.5299 99.4857 13.7818 99.7859 13.1987C100.095 12.6157 100.507 12.1833 101.02 11.9015C101.543 11.61 102.119 11.4643 102.748 11.4643C103.512 11.4643 104.185 11.6294 104.766 11.9598C105.356 12.2902 105.821 12.7517 106.159 13.3445C106.508 13.9372 106.682 14.6369 106.682 15.4433C106.682 16.2498 106.508 16.9495 106.159 17.5422C105.821 18.135 105.356 18.6014 104.766 18.9415C104.185 19.2718 103.512 19.437 102.748 19.437ZM98.4503 19.335V8.52002H100.265V13.3591L100.12 15.4288L100.178 17.4985V19.335H98.4503ZM102.544 17.8774C102.98 17.8774 103.367 17.7803 103.706 17.5859C104.054 17.3916 104.33 17.1098 104.533 16.7406C104.737 16.3713 104.838 15.9389 104.838 15.4433C104.838 14.9381 104.737 14.5057 104.533 14.1461C104.33 13.7769 104.054 13.4951 103.706 13.3008C103.367 13.1064 102.98 13.0093 102.544 13.0093C102.109 13.0093 101.717 13.1064 101.368 13.3008C101.02 13.4951 100.744 13.7769 100.541 14.1461C100.338 14.5057 100.236 14.9381 100.236 15.4433C100.236 15.9389 100.338 16.3713 100.541 16.7406C100.744 17.1098 101.02 17.3916 101.368 17.5859C101.717 17.7803 102.109 17.8774 102.544 17.8774ZM108.975 22.2647C108.597 22.2647 108.22 22.2015 107.842 22.0752C107.465 21.9488 107.15 21.7739 106.898 21.5505L107.624 20.2095C107.808 20.3747 108.016 20.5059 108.249 20.6031C108.481 20.7002 108.718 20.7488 108.96 20.7488C109.289 20.7488 109.555 20.6662 109.759 20.501C109.962 20.3359 110.151 20.0589 110.325 19.6702L110.775 18.6499L110.92 18.4313L113.853 11.5517H115.595L111.965 19.9617C111.723 20.5448 111.452 21.0063 111.152 21.3464C110.862 21.6865 110.533 21.9246 110.165 22.0606C109.807 22.1966 109.41 22.2647 108.975 22.2647ZM110.572 19.6119L107.073 11.5517H108.96L111.806 18.271L110.572 19.6119Z" fill="#FF7697"/>
<path d="M2.64533 22.5639C2.64533 22.5639 1.44949 16.5747 4.11096 15.4363C6.77241 14.298 5.76861 12.5599 5.76861 12.5599C5.76861 12.5599 6.27657 7.76511 9.72069 6.61455C13.1648 5.464 16.3488 5.40059 16.3488 5.40059C16.3488 5.40059 19.4818 2.07568 21.9901 2.07568C24.4985 2.07568 27.1526 3.86491 27.1526 3.86491C27.1526 3.86491 29.6537 3.42369 31.9968 5.23971C34.3398 7.05576 36.5857 12.4624 36.5857 12.4624C36.5857 12.4624 39.5437 12.1479 41.493 15.1804C43.4424 18.2128 43.819 19.2098 42.9902 21.35C42.1614 23.4902 40.4405 25.2185 40.4405 25.2185L2.8665 24.6432L2.64533 22.5639Z" fill="#FF7697"/>
<path d="M43.1699 25.165H2.11365V29.4734L6.23422 38.3687L13.5146 44.649L22.6525 46.7067L29.271 45.1848L34.758 48.9573H36.9784V40.555C38.5583 38.2472 41.859 33.293 42.4227 31.9383C42.9863 30.5837 43.1558 26.8584 43.1699 25.165Z" fill="white"/>
<path d="M35.3729 40.2955C35.0399 40.5832 34.8844 41.0219 34.9548 41.4583L36.1045 48.2544L29.5517 44.2908C29.2406 44.103 28.8614 44.0593 28.5163 44.1737C26.55 44.8151 24.4889 45.1392 22.3888 45.1392C11.7478 45.1392 3.03186 36.7122 2.52631 26.1646H2.75235H2.75478H42.2538C41.9889 31.6078 39.5146 36.7122 35.3729 40.2955ZM3.75131 16.9138C4.41244 16.1411 5.24125 15.5829 6.21345 15.2538C8.23813 14.5688 10.5155 15.0076 11.7527 15.5731C10.5277 17.7475 10.5715 20.2119 10.5763 20.3411C10.5933 21.0358 11.1694 21.5843 11.8621 21.5648C12.5523 21.5453 13.0968 20.9627 13.0822 20.2778C13.0822 20.2339 13.0506 17.5013 14.5819 15.9339C15.3183 15.1806 16.2978 14.815 17.5812 14.815C18.2739 14.815 18.8354 14.2519 18.8354 13.5572C18.8354 12.8625 18.2739 12.2994 17.5812 12.2994C15.9381 12.2994 14.543 12.7406 13.4201 13.6133C12.02 12.7942 9.48502 12.1068 6.91105 12.5066C6.86485 10.7027 7.43118 9.23283 8.60514 8.13101C11.7989 5.12299 16.0767 6.32473 16.2566 6.37836C16.869 6.55631 17.5229 6.24675 17.7684 5.65439C17.8145 5.54713 18.9885 2.87307 21.7204 2.53911C23.1278 2.36604 24.6614 3.07295 25.8329 4.05532C24.7927 4.65983 24.1291 5.27659 24.0878 5.31555C23.5823 5.79088 23.558 6.58559 24.0319 7.0926C24.5059 7.59961 25.2982 7.624 25.8038 7.15112C25.8111 7.14378 26.8999 6.14194 28.3534 5.6495C29.6246 5.21563 30.7184 5.30338 31.7052 5.91765C33.5913 7.0926 34.9184 9.1792 35.6573 12.1263C34.86 12.3238 34.143 12.5919 33.5524 12.8576C32.692 12.4237 31.8462 12.2287 31.2409 12.1897C30.5482 12.1434 29.9527 12.6699 29.9065 13.3622C29.8555 14.0545 30.3805 14.6492 31.0684 14.698C31.2191 14.7102 31.958 14.7955 32.7236 15.2538C32.7916 15.3074 32.8646 15.3537 32.9399 15.3927C33.5816 15.8388 34.2062 16.5701 34.4785 17.7645C34.634 18.4422 35.3073 18.8639 35.983 18.7079C36.5639 18.5738 36.9552 18.0571 36.9552 17.4842C36.9552 17.3916 36.9455 17.2965 36.9236 17.2014C36.6927 16.1898 36.2843 15.3684 35.7812 14.7029C36.2454 14.5615 36.7583 14.442 37.2882 14.386C38.2045 14.2909 39.0309 14.4006 39.7406 14.7151C41.0482 15.2928 42.0496 16.5774 42.3583 18.0741C42.6233 19.3563 42.5017 21.3405 40.5451 23.6514H25.1232C25.3104 22.8714 25.393 22.1206 25.393 21.4112C25.393 17.9937 23.5725 15.5365 23.468 15.3976C23.0499 14.8442 22.2625 14.737 21.7107 15.1563C21.159 15.5755 21.052 16.3629 21.4676 16.9138C21.5722 17.0552 23.7184 20.0169 22.5152 23.649H3.55687C2.80583 21.7062 2.13013 18.8103 3.75131 16.9138ZM44.7841 25.1895C44.7841 25.0774 44.7841 24.9629 44.779 24.8556C44.7547 24.212 44.2491 23.6953 43.6175 23.649C44.507 22.162 44.9664 20.6093 44.9664 19.0809C44.9664 18.569 44.9152 18.0619 44.8106 17.5598C44.3418 15.2806 42.7836 13.3061 40.7469 12.4091C39.9521 12.0581 39.0868 11.8703 38.1632 11.8411C37.2833 8.06765 35.5576 5.35701 33.025 3.77987C31.6395 2.91938 30.0524 2.66586 28.3923 3.03151C26.7323 1.22035 24.1024 -0.286103 21.4166 0.0429768C18.444 0.406183 16.7281 2.49523 15.9527 3.74573C14.1079 3.44347 10.1169 3.25334 6.88675 6.29549C4.63115 8.41622 4.25444 11.1049 4.44404 13.2671C3.44992 13.7498 2.57735 14.4225 1.84575 15.2757C-0.332028 17.8304 0.103038 21.204 0.914843 23.6929C0.404427 23.8367 0.0228347 24.2974 0.000959615 24.8531C-0.0039015 24.9629 -0.00390625 25.075 -0.00390625 25.1895C-0.00390625 37.5751 10.0416 47.65 22.3913 47.65C24.5593 47.65 26.6909 47.3405 28.7399 46.7334L37.1521 51.8207C37.5725 52.0741 38.1 52.0595 38.5059 51.7843C38.9118 51.5086 39.1184 51.0186 39.0357 50.5338L37.5458 41.7216C42.1566 37.4752 44.7841 31.4908 44.7841 25.1895Z" fill="black"/>
<path d="M16.5263 7.86267C11.9204 6.8267 9.87626 9.20095 9.7912 9.30332C9.34639 9.83717 9.41689 10.6294 9.94919 11.0755C10.4742 11.5142 11.252 11.4509 11.6992 10.939C11.7818 10.8536 12.9922 9.6446 15.977 10.3174C16.6527 10.4685 17.3235 10.0444 17.4742 9.36668C17.4961 9.27404 17.5058 9.18145 17.5058 9.08881C17.5058 8.51355 17.1096 7.99432 16.5263 7.86267Z" fill="white"/>
<path d="M7.52344 16.007C6.12343 16.3751 5.11963 17.0917 4.53382 18.1399C3.66613 19.6951 4.12308 21.3283 4.17899 21.5087C4.3807 22.1742 5.08073 22.5471 5.74425 22.3472C6.40294 22.1474 6.77725 21.4502 6.5828 20.7896C6.5731 20.7506 6.37378 19.9754 6.73349 19.3514C6.97414 18.9297 7.45538 18.6226 8.16023 18.4373C8.72413 18.2886 9.096 17.7791 9.096 17.2209C9.096 17.1161 9.08384 17.0089 9.05467 16.9016C8.87969 16.2337 8.19426 15.8315 7.52344 16.007Z" fill="white"/>
<path d="M30.3222 7.29736C26.494 7.29736 24.6979 10.4346 24.2823 12.0922C24.1121 12.765 24.5204 13.45 25.1937 13.6181C25.8645 13.7863 26.5426 13.3817 26.7128 12.7113C26.793 12.4091 27.5635 9.81055 30.3222 9.81055C31.0149 9.81055 31.5764 9.24747 31.5764 8.55274C31.5764 7.86045 31.0149 7.29736 30.3222 7.29736Z" fill="white"/>
<path d="M12.6324 33.5552C12.6324 32.3462 13.6095 31.3662 14.8127 31.3662C16.0182 31.3662 16.9929 32.3462 16.9929 33.5552C16.9929 34.7618 16.0158 35.7418 14.8127 35.7418C13.6071 35.7418 12.6324 34.7618 12.6324 33.5552Z" fill="black"/>
<path d="M20.5221 33.5552C20.5221 32.3462 21.4992 31.3662 22.7047 31.3662C23.9103 31.3662 24.8849 32.3462 24.8849 33.5552C24.8849 34.7618 23.9078 35.7418 22.7047 35.7418C21.4992 35.7418 20.5221 34.7618 20.5221 33.5552Z" fill="black"/>
<path d="M28.4117 33.5552C28.4117 32.3462 29.3888 31.3662 30.5944 31.3662C31.7999 31.3662 32.7746 32.3462 32.7746 33.5552C32.7746 34.7618 31.7975 35.7418 30.5944 35.7418C29.3888 35.7418 28.4117 34.7618 28.4117 33.5552Z" fill="black"/>
</g>
<defs>
<clipPath id="clip0_319_8">
<rect width="213" height="52" fill="white" transform="translate(0 0.000976562)"/>
</clipPath>
</defs>
</svg>
